<?xml version="1.0" encoding="UTF-8" standalone="no"?>
<svg
   xml:space="preserve"
   width="32"
   height="32"
   viewBox="0 0 8.467 8.467"
   version="1.1"
   id="svg2"
   sodipodi:docname="mask-icon.svg"
   inkscape:version="1.3 (0e150ed6c4, 2023-07-21)"
   xmlns:inkscape="http://www.inkscape.org/namespaces/inkscape"
   xmlns:sodipodi="http://sodipodi.sourceforge.net/DTD/sodipodi-0.dtd"
   xmlns="http://www.w3.org/2000/svg"
   xmlns:svg="http://www.w3.org/2000/svg"><defs
     id="defs2" /><sodipodi:namedview
     id="namedview2"
     pagecolor="#ffffff"
     bordercolor="#000000"
     borderopacity="0.25"
     inkscape:showpageshadow="2"
     inkscape:pageopacity="0.0"
     inkscape:pagecheckerboard="0"
     inkscape:deskcolor="#d1d1d1"
     showgrid="false"
     inkscape:zoom="9.02666"
     inkscape:cx="43.316132"
     inkscape:cy="24.206074"
     inkscape:window-width="1920"
     inkscape:window-height="1017"
     inkscape:window-x="1912"
     inkscape:window-y="-8"
     inkscape:window-maximized="1"
     inkscape:current-layer="svg2" /><path
     id="path1"
     style="fill:#000000;fill-opacity:1"
     d="M 2.1291528 0 A 0.487 0.487 0 0 0 1.6418249 0.48577759 A 0.487 0.487 0 0 0 2.1291528 0.97310553 A 0.5 0.5 0 0 0 2.3291485 0.9302124 L 3.4541887 2.0552526 A 1 1 0 0 0 3.2619448 2.3751423 L 1.3901508 2.3751423 C 0.62015153 2.3751423 -1.5667082e-16 2.98824 0 3.7482392 L 0 5.9600776 C 0 6.7200768 0.62015153 7.3321409 1.3901508 7.3321409 L 7.0768492 7.3321409 C 7.8468485 7.3321409 8.467 6.7200768 8.467 5.9600776 L 8.467 3.7482392 C 8.467 2.98824 7.8468485 2.3751423 7.0768492 2.3751423 L 5.2071223 2.3751423 A 1 1 0 0 0 5.0148784 2.0531855 L 6.1378515 0.9302124 A 0.5 0.5 0 0 0 6.3378472 0.97310553 A 0.487 0.487 0 0 0 6.8251751 0.48577759 A 0.487 0.487 0 0 0 6.3378472 0 A 0.487 0.487 0 0 0 5.8520696 0.48577759 A 0.5 0.5 0 0 0 5.8959963 0.68887396 L 4.7492511 1.8361359 A 1.04 1.04 0 0 0 4.2340168 1.6981544 A 1.04 1.04 0 0 0 3.7177489 1.8361359 L 2.5699702 0.68990753 A 0.5 0.5 0 0 0 2.6138969 0.48681116 A 0.487 0.487 0 0 0 2.1291528 0 z M 1.5400183 3.4345509 L 3.6707215 3.4345509 L 3.8800193 4.0252358 L 3.0800366 4.0252358 L 3.0800366 6.4623923 L 2.3420681 6.4623923 L 2.3420681 4.0252358 L 1.5400183 4.0252358 L 1.5400183 3.4345509 z M 3.8583143 3.4345509 L 4.6433102 3.4345509 L 5.3936816 5.7208063 L 6.148704 3.4345509 L 6.9290488 3.4345509 L 5.8551703 6.4623923 L 4.9321929 6.4623923 L 3.8583143 3.4345509 z " /></svg>
